PathFileType	4	(X/Y/Z)	\\move.snu.ac.kr\motion\Animal\091204_091205_Bird\091205_bird\Project 2\Capture day 2\Session 1\pigeon_016_14markers.trc
DataRate	CameraRate	NumFrames	NumMarkers	Units	OrigDataRate	OrigDataStartFrame	OrigNumFrames
240.0	240.0	10	14	mm	240.0	47	2171
Frame#	Time	20MarkersBird:Head			20MarkersBird:C_back			20MarkersBird:L-back			20MarkersBird:R-back			20MarkersBird:Spine			20MarkersBird:L-shoulder			20MarkersBird:L-elbow			20MarkersBird:L-wrist			20MarkersBird:L-hand			20MarkersBird:L-wing1			20MarkersBird:L-wing10			20MarkersBird:R-shoulder			20MarkersBird:R-elbow			20MarkersBird:R-Wrist			20MarkersBird:R-hand			20MarkersBird:R-wing1			20MarkersBird:R-wing10			20MarkersBird:C_Tail			20MarkersBird:L-Tale			20MarkersBird:R-Tale			
		X1	Y1	Z1	X2	Y2	Z2	X3	Y3	Z3	X4	Y4	Z4	X5	Y5	Z5	X6	Y6	Z6	X7	Y7	Z7	X8	Y8	Z8	X9	Y9	Z9	X10	Y10	Z10	X11	Y11	Z11	X12	Y12	Z12	X13	Y13	Z13	X14	Y14	Z14	X15	Y15	Z15	X16	Y16	Z16	X17	Y17	Z17	X18	Y18	Z18	X19	Y19	Z19	X20	Y20	Z20	

1107	4.608	-1518.08154	1426.71851	890.88580	-1502.85425	1399.01196	943.45197							-1484.98181	1378.81714	989.33716	-1533.96143	1403.24207	925.77185	-1523.26978	1418.19592	951.39099	-1548.98120	1454.48059	946.78937	-1544.76575	1484.04456	956.99756							-1488.83105	1403.80078	910.87964	-1474.17212	1423.40625	929.60394	-1452.60437	1449.48181	920.18921	-1440.36414	1486.64758	940.16528							-1456.34277	1274.23413	1060.83472	-1547.13660	1295.26538	1037.39563	-1384.54358	1308.95105	987.68402	
1108	4.613	-1517.45959	1429.57153	888.22009	-1502.50977	1400.90552	939.98749							-1484.49023	1382.16162	986.06586	-1535.00269	1405.13623	922.19452	-1526.24548	1418.75232	945.49402	-1558.45251	1450.94238	944.40948	-1564.18323	1479.77246	956.66907							-1487.57666	1404.42432	907.44586	-1469.80579	1422.11621	922.52020	-1440.97034	1442.14148	912.98560	-1419.51794	1475.60217	929.16052							-1455.42224	1278.21069	1058.39441	-1545.38379	1299.84058	1037.38525	-1384.81372	1311.25818	986.26563	
1109	4.617	-1516.69226	1432.54688	885.21631	-1502.03821	1402.98804	936.21899							-1483.97400	1385.72070	982.76471	-1535.64954	1405.56677	918.29755	-1528.95874	1419.35229	941.89563	-1568.68774	1444.13513	942.72540	-1581.77185	1470.87476	952.67670							-1486.49622	1404.76282	903.33923	-1464.05652	1419.63611	917.99805	-1431.98401	1433.28198	903.47552	-1401.39185	1461.69629	912.73676							-1453.87244	1282.60120	1055.78516	-1543.91296	1305.93518	1037.90320	-1385.10693	1314.17419	984.64850	
1110	4.621	-1515.88098	1435.67078	882.20013	-1501.47778	1405.19409	932.20428							-1483.42944	1389.48376	979.44482	-1536.24194	1406.33533	913.46692	-1532.46008	1420.20593	938.03687	-1578.10730	1435.98096	936.06818	-1597.67395	1458.61707	944.74847							-1484.84009	1405.48560	897.57343	-1459.41687	1416.45569	911.36169	-1426.23096	1421.98645	892.38324	-1389.42310	1441.87146	892.20844							-1452.23438	1287.38806	1053.10815	-1543.40149	1313.40564	1038.10681	-1385.25452	1317.42566	983.23792	
1111	4.625	-1515.31958	1438.04297	878.80389	-1500.98279	1407.91663	928.06763							-1482.85291	1393.44006	976.11713	-1537.10315	1408.47241	907.98932	-1538.07959	1420.40515	934.76617	-1585.79382	1424.93860	926.80597	-1610.02686	1443.04443	933.36926							-1483.88086	1405.22827	892.27277	-1457.95288	1413.80713	904.14648	-1425.22241	1410.25256	879.01086	-1385.80481	1420.52466	870.54816							-1450.81775	1292.39429	1050.36340	-1544.10522	1321.62927	1037.55603	-1386.45447	1319.93140	980.54266	
1112	4.629	-1514.63660	1440.44788	875.17694	-1500.70984	1410.99915	924.17822							-1482.24060	1397.57898	972.79285	-1536.11243	1408.76453	904.41089	-1544.49988	1419.43787	929.45679	-1589.16309	1414.06702	913.96399	-1617.78955	1424.82495	917.97186							-1483.54883	1405.40613	887.69122	-1455.63806	1412.74036	897.06952	-1429.05896	1397.39709	865.46387	-1391.48352	1396.82080	849.30792							-1450.20593	1297.19360	1047.54285	-1545.62488	1329.97998	1035.69287	-1387.20667	1323.09521	977.11462	
1113	4.633	-1513.77295	1442.30615	871.32825	-1499.93555	1414.64478	920.64697							-1481.58887	1401.88989	969.48303	-1534.90564	1411.77148	899.85620	-1547.51880	1416.61694	923.24927	-1588.10962	1401.50696	901.91998	-1618.66040	1403.68408	900.55597							-1483.15784	1406.90918	883.20148	-1454.54675	1407.54431	887.67468	-1438.27698	1385.83142	854.11267	-1406.04333	1375.59485	830.97034							-1450.79529	1302.09473	1045.04395	-1547.76843	1337.68042	1032.29846	-1388.37402	1325.36743	973.46625	
1114	4.637	-1512.92297	1443.61035	866.86884	-1498.75977	1418.46899	917.06824							-1480.89392	1406.36182	966.19867	-1533.89807	1414.29346	895.94470	-1549.04822	1413.36804	917.26459	-1582.00366	1391.48596	889.62347	-1610.36438	1384.05566	883.35168							-1482.78979	1408.98755	879.30334	-1456.04602	1403.84473	879.85791	-1451.78833	1377.69824	845.59546	-1427.92395	1356.64099	820.25159							-1452.80139	1307.31470	1043.33801	-1549.95886	1344.97144	1027.95740	-1389.35364	1327.70654	969.72675	
1115	4.642	-1512.16931	1444.64453	862.11426	-1497.45801	1422.33252	913.39935							-1480.15869	1411.01624	962.92657	-1533.38074	1416.60730	890.54889	-1549.25977	1410.34973	910.77307	-1572.00806	1385.38220	878.13477	-1594.84033	1370.34998	867.11523							-1482.02136	1412.39502	874.89453	-1458.77820	1401.25244	874.63879	-1466.16113	1374.43005	841.52893	-1453.29492	1346.77563	814.40411							-1456.21973	1312.92188	1042.58203	-1551.85876	1351.77698	1023.34869	-1390.14746	1329.68726	966.94519	
1116	4.646	-1511.68188	1445.24231	856.73297	-1496.20483	1426.10071	909.45026							-1479.39014	1414.51624	958.74402	-1532.06506	1419.99084	886.49878	-1547.15491	1408.88672	906.90527	-1561.52344	1385.28369	869.01697	-1575.88843	1365.08472	854.52820							-1481.51355	1415.41907	871.14520	-1461.38904	1400.13293	872.09985	-1477.71533	1377.45447	840.31226	-1477.74500	1348.10852	813.25183							-1460.50671	1319.18652	1042.45288	-1553.10046	1357.99902	1019.21466	-1390.40381	1332.28552	965.68103	
